<svg width="1280" height="720" viewBox="0 0 1280 720" xmlns="http://www.w3.org/2000/svg">
  <defs>
    <linearGradient id="sky" x1="0" y1="0" x2="0" y2="1">
      <stop offset="0" stop-color="#7dc5f6"/>
      <stop offset="1" stop-color="#a7d7ff"/>
    </linearGradient>
  </defs>
  <rect width="1280" height="720" fill="url(#sky)"/>
  <g opacity="0.22" fill="#ffffff">
    <rect x="70" y="80" width="120" height="220" rx="4"/>
    <rect x="220" y="40" width="110" height="260" rx="4"/>
    <rect x="370" y="100" width="90" height="200" rx="4"/>
    <rect x="520" y="60" width="130" height="240" rx="4"/>
    <rect x="700" y="110" width="95" height="190" rx="4"/>
    <rect x="840" y="70" width="120" height="230" rx="4"/>
    <rect x="995" y="120" width="100" height="180" rx="4"/>
    <rect x="1130" y="50" width="110" height="250" rx="4"/>
  </g>
  <g opacity="0.32" fill="#4d9a65">
    <polygon points="0,340 90,280 170,330 240,260 350,350 430,300 530,345 620,280 730,350 830,295 940,340 1030,270 1130,338 1215,290 1280,345 1280,400 0,400"/>
  </g>
  <g opacity="0.36" fill="#6bb17d">
    <polygon points="0,405 120,370 220,415 315,360 430,420 540,365 650,425 760,372 860,430 965,382 1080,425 1180,390 1280,430 1280,490 0,490"/>
  </g>
</svg>
