<svg width="1280" height="720" viewBox="0 0 1280 720" xmlns="http://www.w3.org/2000/svg">
  <rect width="1280" height="720" fill="none"/>
  <g opacity="0.35" fill="#4d9a65">
    <polygon points="0,340 90,280 170,330 240,260 350,350 430,300 530,345 620,280 730,350 830,295 940,340 1030,270 1130,338 1215,290 1280,345 1280,410 0,410"/>
  </g>
  <g opacity="0.40" fill="#6bb17d">
    <polygon points="0,405 120,370 220,415 315,360 430,420 540,365 650,425 760,372 860,430 965,382 1080,425 1180,390 1280,430 1280,500 0,500"/>
  </g>
</svg>
