<svg width="96" height="96" viewBox="0 0 96 96" xmlns="http://www.w3.org/2000/svg">
  <defs>
    <linearGradient id="suit" x1="0" y1="0" x2="0" y2="1">
      <stop offset="0" stop-color="#365b87"/>
      <stop offset="1" stop-color="#1d3556"/>
    </linearGradient>
  </defs>
  <ellipse cx="48" cy="90" rx="24" ry="4" fill="#000" opacity="0.18"/>
  <circle cx="45" cy="21" r="10" fill="#f2c39b"/>
  <path d="M36 15 C38 8, 50 7, 56 13 C54 18, 48 20, 42 20 Z" fill="#7b3f1f"/>
  <path d="M40 31 L58 34 L53 56 L35 52 Z" fill="url(#suit)"/>
  <rect x="48" y="33" width="3" height="18" fill="#d83b3b"/>
  <path d="M57 38 L70 45 L66 52 L54 45 Z" fill="#f2c39b"/>
  <path d="M36 39 L28 50 L35 54 L42 43 Z" fill="#f2c39b"/>
  <path d="M36 53 L50 57 L43 78 L29 74 Z" fill="#283f5f"/>
  <path d="M49 56 L61 61 L70 79 L58 82 L50 63 Z" fill="#283f5f"/>
  <rect x="25" y="74" width="15" height="6" rx="2" fill="#3a2418"/>
  <rect x="57" y="80" width="16" height="6" rx="2" fill="#3a2418"/>
</svg>
